<svg width="20" height="21" viewBox="0 0 20 21" fill="none" xmlns="http://www.w3.org/2000/svg">
<g clip-path="url(#clip0)">
<path d="M9.16663 17.1207C7.26329 16.9055 5.5144 15.9702 4.27856 14.5068C3.04273 13.0433 2.4136 11.1625 2.52017 9.24999C2.62675 7.33749 3.46096 5.53822 4.85174 4.22113C6.24253 2.90403 8.0845 2.16891 9.99997 2.16651C11.9178 2.16511 13.7633 2.89845 15.1571 4.21579C16.5509 5.53312 17.3871 7.33435 17.4938 9.24921C17.6005 11.1641 16.9696 13.047 15.7308 14.5111C14.492 15.9751 12.7394 16.909 10.8333 17.1207V20.4998H9.16663V17.1207ZM9.99997 15.4998C10.766 15.4998 11.5246 15.349 12.2323 15.0558C12.94 14.7627 13.5831 14.333 14.1248 13.7913C14.6664 13.2496 15.0961 12.6066 15.3893 11.8988C15.6824 11.1911 15.8333 10.4326 15.8333 9.66651C15.8333 8.90046 15.6824 8.14192 15.3893 7.43419C15.0961 6.72645 14.6664 6.08339 14.1248 5.54172C13.5831 5.00004 12.94 4.57036 12.2323 4.27721C11.5246 3.98406 10.766 3.83317 9.99997 3.83317C8.45287 3.83317 6.96914 4.44775 5.87518 5.54172C4.78121 6.63568 4.16663 8.11941 4.16663 9.66651C4.16663 11.2136 4.78121 12.6973 5.87518 13.7913C6.96914 14.8853 8.45287 15.4998 9.99997 15.4998Z" fill="black"/>
</g>
<defs>
<clipPath id="clip0">
<rect width="20" height="20" fill="white" transform="translate(0 0.5)"/>
</clipPath>
</defs>
</svg>
