<svg width="21" height="21" viewBox="0 0 21 21" fill="none" xmlns="http://www.w3.org/2000/svg">
<path d="M3.83325 18.8335C3.83325 17.0654 4.53563 15.3697 5.78587 14.1195C7.03612 12.8692 8.73181 12.1668 10.4999 12.1668C12.268 12.1668 13.9637 12.8692 15.214 14.1195C16.4642 15.3697 17.1666 17.0654 17.1666 18.8335H15.4999C15.4999 17.5074 14.9731 16.2356 14.0355 15.298C13.0978 14.3603 11.826 13.8335 10.4999 13.8335C9.17384 13.8335 7.90207 14.3603 6.96438 15.298C6.0267 16.2356 5.49992 17.5074 5.49992 18.8335H3.83325ZM10.4999 11.3335C7.73742 11.3335 5.49992 9.096 5.49992 6.3335C5.49992 3.571 7.73742 1.3335 10.4999 1.3335C13.2624 1.3335 15.4999 3.571 15.4999 6.3335C15.4999 9.096 13.2624 11.3335 10.4999 11.3335ZM10.4999 9.66683C12.3416 9.66683 13.8333 8.17516 13.8333 6.3335C13.8333 4.49183 12.3416 3.00016 10.4999 3.00016C8.65825 3.00016 7.16659 4.49183 7.16659 6.3335C7.16659 8.17516 8.65825 9.66683 10.4999 9.66683Z" fill="black"/>
</svg>
