<svg width="24" height="25" viewBox="0 0 24 25" fill="none" xmlns="http://www.w3.org/2000/svg">
<path d="M8.965 18.5C8.84612 19.3343 8.43021 20.0977 7.79368 20.6499C7.15714 21.2022 6.34272 21.5063 5.5 21.5063C4.65728 21.5063 3.84286 21.2022 3.20632 20.6499C2.56979 20.0977 2.15388 19.3343 2.035 18.5H1V6.5C1 6.23478 1.10536 5.98043 1.29289 5.79289C1.48043 5.60536 1.73478 5.5 2 5.5H16C16.2652 5.5 16.5196 5.60536 16.7071 5.79289C16.8946 5.98043 17 6.23478 17 6.5V8.5H20L23 12.556V18.5H20.965C20.8461 19.3343 20.4302 20.0977 19.7937 20.6499C19.1571 21.2022 18.3427 21.5063 17.5 21.5063C16.6573 21.5063 15.8429 21.2022 15.2063 20.6499C14.5698 20.0977 14.1539 19.3343 14.035 18.5H8.965ZM15 7.5H3V15.55C3.39456 15.1472 3.8806 14.8457 4.41675 14.6711C4.9529 14.4966 5.52329 14.4541 6.07938 14.5474C6.63546 14.6407 7.16077 14.8669 7.61061 15.2069C8.06044 15.5469 8.42148 15.9905 8.663 16.5H14.337C14.505 16.147 14.73 15.826 15 15.55V7.5ZM17 13.5H21V13.215L18.992 10.5H17V13.5ZM17.5 19.5C17.898 19.5 18.2796 19.3419 18.561 19.0605C18.8424 18.7791 19.0005 18.3975 19.0005 17.9995C19.0005 17.6015 18.8424 17.2199 18.561 16.9385C18.2796 16.6571 17.898 16.499 17.5 16.499C17.102 16.499 16.7204 16.6571 16.439 16.9385C16.1576 17.2199 15.9995 17.6015 15.9995 17.9995C15.9995 18.3975 16.1576 18.7791 16.439 19.0605C16.7204 19.3419 17.102 19.5 17.5 19.5ZM7 18C7 17.803 6.9612 17.608 6.88582 17.426C6.81044 17.244 6.69995 17.0786 6.56066 16.9393C6.42137 16.8001 6.25601 16.6896 6.07403 16.6142C5.89204 16.5388 5.69698 16.5 5.5 16.5C5.30302 16.5 5.10796 16.5388 4.92597 16.6142C4.74399 16.6896 4.57863 16.8001 4.43934 16.9393C4.30005 17.0786 4.18956 17.244 4.11418 17.426C4.0388 17.608 4 17.803 4 18C4 18.3978 4.15804 18.7794 4.43934 19.0607C4.72064 19.342 5.10218 19.5 5.5 19.5C5.89782 19.5 6.27936 19.342 6.56066 19.0607C6.84196 18.7794 7 18.3978 7 18Z" fill="#0D486D"/>
</svg>
