<svg width="17" height="17" viewBox="0 0 17 17" fill="none" xmlns="http://www.w3.org/2000/svg">
<path d="M16.5134 7.68505H9.09726V10.1571H13.6219C12.9469 12.3063 10.9395 13.8653 8.56746 13.8653C5.6418 13.8653 3.27022 11.4935 3.27022 8.56795C3.27022 5.64227 5.64188 3.27068 8.56746 3.27068C10.0407 3.27068 11.3733 3.87226 12.3335 4.84299L14.1279 2.89253C12.6948 1.48826 10.7325 0.62207 8.56746 0.62207C4.17909 0.622028 0.621582 4.17956 0.621582 8.56795C0.621582 12.9563 4.17909 16.514 8.56751 16.514C12.4116 16.514 15.7772 13.784 16.5135 10.1572V7.6851L16.5134 7.68505Z" fill="white"/>
</svg>
