<svg width="40" height="40" viewBox="0 0 40 40" fill="none" xmlns="http://www.w3.org/2000/svg">
<g clip-path="url(#clip0)">
<path d="M39.9999 20C39.9999 26.6032 34.6666 32 27.9999 32C21.3968 32 15.9999 26.6032 15.9999 20C15.9999 13.3968 21.3333 8 27.9364 8C34.6666 8 39.9999 13.3968 39.9999 20Z" fill="#FFB600"/>
<path d="M27.9999 8C34.6031 8 39.9999 13.3968 39.9999 20C39.9999 26.6032 34.6666 32 27.9999 32C21.3968 32 15.9999 26.6032 15.9999 20" fill="#F7981D"/>
<path d="M28.0001 8C34.6033 8 40.0001 13.3968 40.0001 20C40.0001 26.6032 34.6668 32 28.0001 32" fill="#FF8500"/>
<path d="M11.873 8C5.33333 8.06349 0 13.3968 0 20C0 26.6032 5.33333 32 12 32C15.1111 32 17.9048 30.7936 20.0635 28.8889C20.5079 28.5079 20.8889 28.0635 21.2698 27.619H18.7937C18.4762 27.2381 18.1587 26.7936 17.9048 26.4127H22.1587C22.4127 26.0317 22.6667 25.5873 22.8571 25.1429H17.2064C17.0159 24.7619 16.8254 24.3175 16.6984 23.873H23.3016C23.6825 22.6667 23.9365 21.3968 23.9365 20.0635C23.9365 19.1746 23.8095 18.3492 23.6825 17.5238H16.3175C16.381 17.0794 16.5079 16.6984 16.6349 16.254H23.2381C23.1111 15.8095 22.9206 15.3651 22.7302 14.9841H17.1429C17.3333 14.5397 17.5873 14.1587 17.8413 13.7143H22.0952C21.8413 13.2698 21.5238 12.8254 21.1429 12.4444H18.7937C19.1746 12 19.5556 11.619 20 11.2381C17.9048 9.26984 15.0476 8.12698 11.9365 8.12698C11.9365 8 11.9365 8 11.873 8Z" fill="#FF5050"/>
<path d="M0 20.0002C0 26.6034 5.33333 32.0002 12 32.0002C15.1111 32.0002 17.9048 30.7939 20.0635 28.8891C20.5079 28.5081 20.8889 28.0637 21.2698 27.6193H18.7937C18.4762 27.2383 18.1587 26.7939 17.9048 26.4129H22.1587C22.4127 26.032 22.6667 25.5875 22.8571 25.1431H17.2064C17.0159 24.7621 16.8254 24.3177 16.6984 23.8732H23.3016C23.6825 22.6669 23.9365 21.397 23.9365 20.0637C23.9365 19.1748 23.8095 18.3494 23.6825 17.524H16.3175C16.381 17.0796 16.5079 16.6986 16.6349 16.2542H23.2381C23.1111 15.8097 22.9206 15.3653 22.7302 14.9843H17.1429C17.3333 14.5399 17.5873 14.1589 17.8413 13.7145H22.0952C21.8413 13.2701 21.5238 12.8256 21.1429 12.4447H18.7937C19.1746 12.0002 19.5556 11.6193 20 11.2383C17.9048 9.27005 15.0476 8.1272 11.9365 8.1272H11.873" fill="#E52836"/>
<path d="M11.9999 32.0002C15.111 32.0002 17.9047 30.7939 20.0634 28.8891C20.5078 28.5081 20.8888 28.0637 21.2697 27.6193H18.7936C18.4761 27.2383 18.1586 26.7939 17.9047 26.4129H22.1586C22.4126 26.032 22.6666 25.5875 22.8571 25.1431H17.2063C17.0158 24.7621 16.8253 24.3177 16.6983 23.8732H23.3015C23.6824 22.6669 23.9364 21.397 23.9364 20.0637C23.9364 19.1748 23.8094 18.3494 23.6824 17.524H16.3174C16.3809 17.0796 16.5078 16.6986 16.6348 16.2542H23.238C23.111 15.8097 22.9205 15.3653 22.7301 14.9843H17.1428C17.3332 14.5399 17.5872 14.1589 17.8412 13.7145H22.0951C21.8412 13.2701 21.5237 12.8256 21.1428 12.4447H18.7936C19.1745 12.0002 19.5555 11.6193 19.9999 11.2383C17.9047 9.27005 15.0475 8.1272 11.9364 8.1272H11.8729" fill="#CB2026"/>
<path d="M16.2541 23.0477L16.4446 21.9684C16.3811 21.9684 16.2541 22.0319 16.1271 22.0319C15.6827 22.0319 15.6192 21.7779 15.6827 21.6509L16.0636 19.4287H16.762L16.9525 18.2224H16.3176L16.4446 17.4604H15.1747C15.1747 17.4604 14.4128 21.6509 14.4128 22.1589C14.4128 22.9208 14.8573 23.2382 15.4287 23.2382C15.8097 23.2382 16.1271 23.1112 16.2541 23.0477Z" fill="white"/>
<path d="M16.6985 21.0158C16.6985 22.7936 17.9049 23.238 18.9208 23.238C19.8731 23.238 20.2541 23.0476 20.2541 23.0476L20.5081 21.8412C20.5081 21.8412 19.8097 22.1587 19.1747 22.1587C17.7779 22.1587 18.0319 21.1428 18.0319 21.1428H20.6351C20.6351 21.1428 20.8255 20.3174 20.8255 19.9999C20.8255 19.1745 20.3811 18.1587 18.9843 18.1587C17.6509 18.0317 16.6985 19.4285 16.6985 21.0158ZM18.9208 19.1745C19.6192 19.1745 19.4922 19.9999 19.4922 20.0634H18.0954C18.0954 19.9999 18.2224 19.1745 18.9208 19.1745Z" fill="white"/>
<path d="M26.9841 23.0476L27.2381 21.6508C27.2381 21.6508 26.6032 21.9683 26.1587 21.9683C25.2698 21.9683 24.8889 21.2699 24.8889 20.508C24.8889 18.9841 25.6508 18.1588 26.5397 18.1588C27.1746 18.1588 27.6825 18.5397 27.6825 18.5397L27.873 17.2064C27.873 17.2064 27.1111 16.8889 26.4127 16.8889C24.9524 16.8889 23.4921 18.1588 23.4921 20.5714C23.4921 22.1587 24.254 23.2381 25.7778 23.2381C26.2857 23.2381 26.9841 23.0476 26.9841 23.0476Z" fill="white"/>
<path d="M9.26993 18.032C8.38105 18.032 7.74613 18.2859 7.74613 18.2859L7.55565 19.3653C7.55565 19.3653 8.12708 19.1113 8.95247 19.1113C9.39692 19.1113 9.77787 19.1748 9.77787 19.5558C9.77787 19.8098 9.71438 19.8732 9.71438 19.8732C9.71438 19.8732 9.33343 19.8732 9.14295 19.8732C8.06359 19.8732 6.85724 20.3177 6.85724 21.778C6.85724 22.9209 7.61914 23.1748 8.06359 23.1748C8.95247 23.1748 9.33343 22.6034 9.39692 22.6034L9.33343 23.1113H10.4763L10.9842 19.6193C10.9842 18.0955 9.71438 18.032 9.26993 18.032ZM9.5239 20.8891C9.5239 21.0796 9.39692 22.0955 8.63501 22.0955C8.25406 22.0955 8.12708 21.778 8.12708 21.5875C8.12708 21.2701 8.31755 20.8256 9.26993 20.8256C9.46041 20.8891 9.5239 20.8891 9.5239 20.8891Z" fill="white"/>
<path d="M12.1905 23.1746C12.5079 23.1746 14.0952 23.2381 14.0952 21.5238C14.0952 19.9365 12.5714 20.254 12.5714 19.6191C12.5714 19.3016 12.8254 19.1746 13.2698 19.1746C13.4603 19.1746 14.1587 19.2381 14.1587 19.2381L14.3492 18.0952C14.3492 18.0952 13.9048 17.9683 13.1429 17.9683C12.1905 17.9683 11.2381 18.3492 11.2381 19.6191C11.2381 21.0794 12.8254 20.9524 12.8254 21.5238C12.8254 21.9048 12.381 21.9683 12.0635 21.9683C11.4921 21.9683 10.9206 21.7778 10.9206 21.7778L10.7302 22.9206C10.7937 23.0476 11.1111 23.1746 12.1905 23.1746Z" fill="white"/>
<path d="M37.5241 17.0159L37.2701 18.7302C37.2701 18.7302 36.7622 18.0952 36.0638 18.0952C34.9209 18.0952 33.905 19.4921 33.905 21.1429C33.905 22.1587 34.413 23.2381 35.4923 23.2381C36.2542 23.2381 36.6987 22.7302 36.6987 22.7302L36.6352 23.1746H37.905L38.8574 17.0794L37.5241 17.0159ZM36.9526 20.3809C36.9526 21.0794 36.6352 21.9683 35.9368 21.9683C35.4923 21.9683 35.2384 21.5873 35.2384 20.9524C35.2384 19.9365 35.6828 19.3016 36.2542 19.3016C36.6987 19.3016 36.9526 19.619 36.9526 20.3809Z" fill="white"/>
<path d="M2.34929 23.1111L3.1112 18.5397L3.23818 23.1111H4.12707L5.77786 18.5397L5.07945 23.1111H6.41279L7.42866 17.0159H5.33342L4.06358 20.7619L4.00009 17.0159H2.15882L1.14294 23.1111H2.34929Z" fill="white"/>
<path d="M22.0318 23.1111C22.4127 21.0158 22.4762 19.3015 23.3651 19.619C23.4921 18.7936 23.6826 18.4762 23.8096 18.1587C23.8096 18.1587 23.7461 18.1587 23.5556 18.1587C22.9842 18.1587 22.5397 18.9206 22.5397 18.9206L22.6667 18.2222H21.4603L20.6349 23.1745H22.0318V23.1111Z" fill="white"/>
<path d="M29.9049 18.032C29.016 18.032 28.3811 18.2859 28.3811 18.2859L28.1906 19.3653C28.1906 19.3653 28.762 19.1113 29.5874 19.1113C30.0319 19.1113 30.4128 19.1748 30.4128 19.5558C30.4128 19.8098 30.3493 19.8732 30.3493 19.8732C30.3493 19.8732 29.9684 19.8732 29.7779 19.8732C28.6985 19.8732 27.4922 20.3177 27.4922 21.778C27.4922 22.9209 28.2541 23.1748 28.6985 23.1748C29.5874 23.1748 29.9684 22.6034 30.0319 22.6034L29.9684 23.1113H31.1112L31.6192 19.6193C31.6827 18.0955 30.3493 18.032 29.9049 18.032ZM30.2223 20.8891C30.2223 21.0796 30.0954 22.0955 29.3335 22.0955C28.9525 22.0955 28.8255 21.778 28.8255 21.5875C28.8255 21.2701 29.016 20.8256 29.9684 20.8256C30.1589 20.8891 30.1589 20.8891 30.2223 20.8891Z" fill="white"/>
<path d="M32.6985 23.1111C33.0794 21.0158 33.1429 19.3015 34.0318 19.619C34.1588 18.7936 34.3493 18.4762 34.4762 18.1587C34.4762 18.1587 34.4128 18.1587 34.2223 18.1587C33.6508 18.1587 33.2064 18.9206 33.2064 18.9206L33.3334 18.2222H32.127L31.3016 23.1745H32.6985V23.1111Z" fill="white"/>
<path d="M14.2858 22.1589C14.2858 22.9208 14.7302 23.2382 15.3016 23.2382C15.7461 23.2382 16.127 23.1112 16.254 23.0477L16.4445 21.9684C16.381 21.9684 16.254 22.0319 16.127 22.0319C15.6826 22.0319 15.6191 21.7779 15.6826 21.6509L16.0635 19.4287H16.762L16.9524 18.2224H16.3175L16.4445 17.4604" fill="#DCE5E5"/>
<path d="M17.3334 21.0158C17.3334 22.7936 17.9048 23.238 18.9207 23.238C19.8731 23.238 20.254 23.0476 20.254 23.0476L20.508 21.8412C20.508 21.8412 19.8096 22.1587 19.1746 22.1587C17.7778 22.1587 18.0318 21.1428 18.0318 21.1428H20.635C20.635 21.1428 20.8254 20.3174 20.8254 19.9999C20.8254 19.1745 20.381 18.1587 18.9842 18.1587C17.6508 18.0317 17.3334 19.4285 17.3334 21.0158ZM18.9207 19.1745C19.6191 19.1745 19.7461 19.9999 19.7461 20.0634H18.0953C18.0953 19.9999 18.2223 19.1745 18.9207 19.1745Z" fill="#DCE5E5"/>
<path d="M26.9841 23.0476L27.2381 21.6508C27.2381 21.6508 26.6031 21.9683 26.1587 21.9683C25.2698 21.9683 24.8889 21.2699 24.8889 20.508C24.8889 18.9841 25.6508 18.1588 26.5397 18.1588C27.1746 18.1588 27.6825 18.5397 27.6825 18.5397L27.873 17.2064C27.873 17.2064 27.1111 16.8889 26.4127 16.8889C24.9523 16.8889 24.127 18.1588 24.127 20.5714C24.127 22.1587 24.2539 23.2381 25.7777 23.2381C26.2857 23.2381 26.9841 23.0476 26.9841 23.0476Z" fill="#DCE5E5"/>
<path d="M7.55565 19.4285C7.55565 19.4285 8.12708 19.1746 8.95247 19.1746C9.39692 19.1746 9.77787 19.2381 9.77787 19.619C9.77787 19.873 9.71438 19.9365 9.71438 19.9365C9.71438 19.9365 9.33343 19.9365 9.14295 19.9365C8.06359 19.9365 6.85724 20.3809 6.85724 21.8412C6.85724 22.9841 7.61914 23.238 8.06359 23.238C8.95247 23.238 9.33343 22.6666 9.39692 22.6666L9.33343 23.1745H10.4763L10.9842 19.6825C10.9842 18.2222 9.71438 18.1587 9.20644 18.1587L7.55565 19.4285ZM10.1588 20.8888C10.1588 21.0793 9.39692 22.0952 8.63501 22.0952C8.25406 22.0952 8.12708 21.7777 8.12708 21.5873C8.12708 21.2698 8.31755 20.8253 9.26993 20.8253C9.46041 20.8888 10.1588 20.8888 10.1588 20.8888Z" fill="#DCE5E5"/>
<path d="M10.7936 23.0476C10.7936 23.0476 11.1746 23.1746 12.254 23.1746C12.5714 23.1746 14.1587 23.2381 14.1587 21.5238C14.1587 19.9365 12.6349 20.254 12.6349 19.6191C12.6349 19.3016 12.8889 19.1746 13.3333 19.1746C13.5238 19.1746 14.2222 19.2381 14.2222 19.2381L14.4127 18.0952C14.4127 18.0952 13.9682 17.9683 13.2063 17.9683C12.254 17.9683 11.9365 18.3492 11.9365 19.6191C11.9365 21.0794 12.8889 20.9524 12.8889 21.5238C12.8889 21.9048 12.4444 21.9683 12.127 21.9683" fill="#DCE5E5"/>
<path d="M37.2697 18.7301C37.2697 18.7301 36.7617 18.0952 36.0633 18.0952C34.9205 18.0952 34.5395 19.492 34.5395 21.1428C34.5395 22.1587 34.4125 23.2381 35.4919 23.2381C36.2538 23.2381 36.6982 22.7301 36.6982 22.7301L36.6348 23.1746H37.9046L38.857 17.0793L37.2697 18.7301ZM37.2062 20.3809C37.2062 21.0793 36.6348 21.9682 35.9363 21.9682C35.4919 21.9682 35.2379 21.5873 35.2379 20.9524C35.2379 19.9365 35.6824 19.3016 36.2538 19.3016C36.6982 19.3016 37.2062 19.619 37.2062 20.3809Z" fill="#DCE5E5"/>
<path d="M2.34929 23.1111L3.1112 18.5397L3.23818 23.1111H4.12707L5.77786 18.5397L5.07945 23.1111H6.41279L7.42866 17.0159H5.84136L4.06358 20.7619L4.00009 17.0159H3.30167L1.14294 23.1111H2.34929Z" fill="#DCE5E5"/>
<path d="M20.6986 23.1111H22.0319C22.4129 21.0158 22.4764 19.3015 23.3653 19.619C23.4923 18.7936 23.6827 18.4762 23.8097 18.1587C23.8097 18.1587 23.7462 18.1587 23.5558 18.1587C22.9843 18.1587 22.5399 18.9206 22.5399 18.9206L22.6669 18.2222" fill="#DCE5E5"/>
<path d="M28.1906 19.4285C28.1906 19.4285 28.762 19.1746 29.5874 19.1746C30.0319 19.1746 30.4128 19.2381 30.4128 19.619C30.4128 19.873 30.3493 19.9365 30.3493 19.9365C30.3493 19.9365 29.9684 19.9365 29.7779 19.9365C28.6985 19.9365 27.4922 20.3809 27.4922 21.8412C27.4922 22.9841 28.2541 23.238 28.6985 23.238C29.5874 23.238 29.9684 22.6666 30.0319 22.6666L29.9684 23.1745H31.1112L31.6192 19.6825C31.6192 18.2222 30.3493 18.1587 29.8414 18.1587L28.1906 19.4285ZM30.7938 20.8888C30.7938 21.0793 30.0319 22.0952 29.27 22.0952C28.889 22.0952 28.762 21.7777 28.762 21.5873C28.762 21.2698 28.9525 20.8253 29.9049 20.8253C30.1589 20.8888 30.7938 20.8888 30.7938 20.8888Z" fill="#DCE5E5"/>
<path d="M31.3654 23.1111H32.6987C33.0796 21.0158 33.1431 19.3015 34.032 19.619C34.159 18.7936 34.3495 18.4762 34.4765 18.1587C34.4765 18.1587 34.413 18.1587 34.2225 18.1587C33.6511 18.1587 33.2066 18.9206 33.2066 18.9206L33.3336 18.2222" fill="#DCE5E5"/>
</g>
<defs>
<clipPath id="clip0">
<rect width="40" height="40" fill="white"/>
</clipPath>
</defs>
</svg>
