<svg width="128" height="24" viewBox="0 0 128 24" fill="none" xmlns="http://www.w3.org/2000/svg">
<path fill-rule="evenodd" clip-rule="evenodd" d="M80.6262 11.3232C80.5581 11.6369 80.5309 11.8111 80.4832 11.9784C79.8024 13.8881 80.2041 13.5326 78.3113 13.5675C77.3649 13.5675 76.4185 13.5675 75.4722 13.5675C75.4722 11.7066 75.8534 11.3232 77.4534 11.3232H80.6262Z" fill="white"/>
<path fill-rule="evenodd" clip-rule="evenodd" d="M128 17.2754H125.896V11.3442L125.678 11.3024C125.297 12.4664 124.834 13.6094 124.541 14.7873C124.289 15.7979 123.602 15.547 122.948 15.6097C122.817 15.6423 122.681 15.6457 122.548 15.6197C122.416 15.5936 122.291 15.5387 122.181 15.4587C122.071 15.3787 121.98 15.2755 121.912 15.156C121.845 15.0366 121.803 14.9037 121.79 14.7664C121.451 13.5612 120.995 12.3938 120.429 11.2815V17.2754H118.264V8.21484H121.293C121.525 8.21484 121.736 8.6609 121.838 8.91181C122.308 10.1942 122.71 11.4906 123.2 13.01C123.69 11.5045 124.133 10.2221 124.528 8.92575C124.564 8.71115 124.68 8.5192 124.851 8.38951C125.022 8.25982 125.235 8.20228 125.447 8.22878H128V17.2754Z" fill="white"/>
<path fill-rule="evenodd" clip-rule="evenodd" d="M73.9472 17.2337H71.8433V11.3164L71.6255 11.2746C71.2442 12.4385 70.7812 13.5816 70.4884 14.7594C70.2365 15.77 69.5489 15.5191 68.8952 15.5819C68.7643 15.6145 68.6281 15.6179 68.4957 15.5918C68.3634 15.5658 68.2381 15.5109 68.1283 15.4309C68.0185 15.3509 67.9268 15.2477 67.8594 15.1282C67.7921 15.0088 67.7506 14.8759 67.7378 14.7385C67.3985 13.5334 66.9423 12.3659 66.3761 11.2537V17.2476H64.2246V8.18701H67.2544C67.4859 8.18701 67.6969 8.63307 67.7991 8.88398C68.2689 10.1664 68.6706 11.4628 69.1608 12.9822C69.651 11.4767 70.0935 10.1943 70.4884 8.89792C70.5252 8.68332 70.6411 8.49137 70.8121 8.36168C70.9832 8.23198 71.1963 8.17445 71.4076 8.20095H73.9335L73.9472 17.2337Z" fill="white"/>
<path fill-rule="evenodd" clip-rule="evenodd" d="M113.151 14.6481C113.648 12.7872 114.172 11.1633 114.513 9.47661C114.737 8.34055 115.248 8.08267 116.31 8.13843C116.712 8.13843 116.916 8.18025 117.399 8.18025C117.086 9.14206 116.807 9.94358 116.528 10.7869C115.656 13.3378 114.812 15.8957 113.913 18.4536C113.103 20.7327 112.443 21.109 109.978 20.8024V18.9484C110.205 18.965 110.432 18.965 110.659 18.9484C110.857 18.9423 111.051 18.8845 111.222 18.7805C111.393 18.6766 111.535 18.5299 111.635 18.3542C111.735 18.1786 111.79 17.9797 111.794 17.7764C111.798 17.5731 111.752 17.372 111.66 17.1921C110.734 14.4042 109.794 11.6163 108.855 8.82843C108.8 8.66812 108.65 8.13146 108.65 8.13146C108.65 8.13146 109.631 8.13146 110.918 8.13146C111.101 8.13146 111.34 8.55661 111.421 8.82843C111.905 10.4384 112.361 12.0624 112.824 13.7072C112.885 13.9372 113.021 14.1881 113.151 14.6481Z" fill="white"/>
<path fill-rule="evenodd" clip-rule="evenodd" d="M100.085 8.21465H102.277C102.318 8.50041 102.359 8.77222 102.393 9.05798C102.858 8.54235 103.46 8.17608 104.124 8.00365C104.789 7.83122 105.488 7.86005 106.137 8.08665C106.786 8.31325 107.357 8.72785 107.78 9.28012C108.203 9.83238 108.46 10.4985 108.521 11.1977C108.652 12.3783 108.604 13.5728 108.378 14.7383C108.247 15.3728 107.949 15.9588 107.517 16.4332C107.085 16.9077 106.535 17.2527 105.926 17.4311C105.317 17.6096 104.672 17.6147 104.06 17.4461C103.449 17.2774 102.893 16.9412 102.454 16.4737V20.7113H100.085V8.21465ZM106.322 12.8216C106.3 12.3758 106.229 11.9339 106.111 11.5043C106.033 11.0879 105.808 10.7154 105.479 10.4582C105.15 10.201 104.739 10.0772 104.327 10.1104C104.111 10.0864 103.893 10.1073 103.685 10.1716C103.477 10.236 103.284 10.3427 103.118 10.4852C102.951 10.6277 102.814 10.8031 102.716 11.001C102.617 11.1989 102.558 11.4151 102.543 11.6368C102.394 12.557 102.46 13.5002 102.733 14.3898C102.906 14.6795 103.141 14.9245 103.421 15.1058C103.701 15.2872 104.018 15.3999 104.347 15.4353C104.667 15.4237 104.98 15.3302 105.255 15.1634C105.531 14.9967 105.762 14.7618 105.927 14.4804C106.169 13.9499 106.297 13.3723 106.301 12.7868L106.322 12.8216Z" fill="white"/>
<path fill-rule="evenodd" clip-rule="evenodd" d="M34.2809 17.2129H31.6937V7.13473H28.1328V4.97412H29.1881H36.4188C37.2222 4.97412 37.7805 6.73048 37.8418 7.06503H34.2809V17.2129Z" fill="white"/>
<path fill-rule="evenodd" clip-rule="evenodd" d="M87.7344 3.74737L88.211 3.70555C88.8918 3.70555 89.5182 3.23162 89.7429 4.21434C89.8365 4.66552 89.776 5.13593 89.5716 5.54694C89.3671 5.95796 89.031 6.28469 88.6195 6.47252C87.8669 6.6935 87.0929 6.82906 86.3114 6.87677C84.8816 7.02313 84.2688 7.57374 84.085 9.09313C84.6316 8.80023 85.2067 8.56663 85.8007 8.39616C88.5242 7.85252 90.5259 9.44859 90.7846 12.2992C91.0433 15.1498 89.2459 17.4498 86.6518 17.5404C83.6084 17.638 81.9812 16.1465 81.7837 12.9962C81.7212 11.9796 81.7212 10.96 81.7837 9.94343C81.9744 6.75131 83.3565 5.28768 86.4407 5.06465C87.2986 4.99495 87.9386 4.92525 87.7344 3.74737ZM88.3471 13.0031C88.3471 10.9471 87.5642 9.88768 86.2501 9.88768C84.9361 9.88768 84.1122 11.0168 84.1259 12.6756C84.1395 14.3343 84.9429 15.4216 86.1684 15.4286C86.5834 15.4694 86.9994 15.3619 87.3457 15.1243C87.692 14.8867 87.9472 14.5337 88.068 14.1253C88.1847 13.7578 88.278 13.383 88.3471 13.0031Z" fill="white"/>
<path fill-rule="evenodd" clip-rule="evenodd" d="M95.2509 14.6481C95.7479 12.7872 96.2722 11.1633 96.6126 9.47661C96.8373 8.34055 97.3479 8.08267 98.41 8.13843C98.8117 8.13843 99.016 8.18025 99.4994 8.18025C99.1862 9.14206 98.9071 9.94358 98.6279 10.7869C97.7564 13.3378 96.9122 15.8957 96.0134 18.4536C95.2032 20.7327 94.5428 21.109 92.0781 20.8024V18.9484C92.3048 18.9652 92.5323 18.9652 92.759 18.9484C92.9566 18.9417 93.1493 18.8838 93.3192 18.7803C93.489 18.6767 93.6305 18.5308 93.7304 18.3561C93.8304 18.1815 93.8855 17.9838 93.8906 17.7815C93.8957 17.5791 93.8507 17.3788 93.7598 17.199C92.8339 14.4112 91.8943 11.6233 90.9547 8.8354C90.9002 8.67509 90.7437 8.13843 90.7437 8.13843C90.7437 8.13843 91.7241 8.13843 93.0109 8.13843C93.1947 8.13843 93.433 8.56358 93.5147 8.8354C93.9981 10.4454 94.4543 12.0693 94.9173 13.7142C94.9854 13.9372 95.0875 14.1881 95.2509 14.6481Z" fill="white"/>
<path fill-rule="evenodd" clip-rule="evenodd" d="M59.1049 14.6271C59.6019 12.7662 60.1262 11.1423 60.4666 9.45561C60.6913 8.31955 61.2019 8.06167 62.264 8.11743C62.6657 8.11743 62.87 8.15925 63.3534 8.15925C63.0402 9.12107 62.7611 9.92258 62.4819 10.7659C61.6104 13.3168 60.7662 15.8747 59.8674 18.4326C59.0572 20.7117 58.3968 21.088 55.9321 20.7814V18.9205C56.1588 18.9372 56.3863 18.9372 56.613 18.9205C56.8106 18.9137 57.0033 18.8559 57.1732 18.7523C57.343 18.6487 57.4845 18.5028 57.5844 18.3282C57.6844 18.1535 57.7395 17.9558 57.7446 17.7535C57.7497 17.5512 57.7047 17.3508 57.6138 17.1711C56.6879 14.3832 55.7483 11.5953 54.8087 8.80743C54.7543 8.64713 54.5977 8.11046 54.5977 8.11046C54.5977 8.11046 55.5781 8.11046 56.8649 8.11046C57.0487 8.11046 57.287 8.53561 57.3687 8.80743C57.8521 10.4174 58.3083 12.0414 58.7713 13.6862C58.8394 13.9162 58.9415 14.1671 59.1049 14.6271Z" fill="white"/>
<path fill-rule="evenodd" clip-rule="evenodd" d="M41.1982 14.6271C41.6952 12.7662 42.2195 11.1423 42.5599 9.45561C42.7846 8.31955 43.2952 8.06167 44.3573 8.11743C44.759 8.11743 44.9633 8.15925 45.4467 8.15925C45.1335 9.12107 44.8544 9.92258 44.5752 10.7659C43.7037 13.3168 42.8595 15.8747 41.9607 18.4326C41.1505 20.7117 40.4901 21.088 38.0254 20.7814V18.9205C38.2521 18.9371 38.4796 18.9371 38.7063 18.9205C38.9039 18.9137 39.0966 18.8559 39.2665 18.7523C39.4363 18.6487 39.5778 18.5028 39.6777 18.3282C39.7777 18.1535 39.8328 17.9558 39.8379 17.7535C39.843 17.5512 39.798 17.3508 39.7071 17.1711C38.7812 14.3832 37.8416 11.5953 36.902 8.80743C36.8475 8.64713 36.6978 8.11046 36.6978 8.11046C36.6978 8.11046 37.6782 8.11046 38.965 8.11046C39.1488 8.11046 39.3871 8.53561 39.4688 8.80743C39.9522 10.4174 40.4084 12.0414 40.8714 13.6862C40.9326 13.9162 41.0416 14.1671 41.1982 14.6271Z" fill="white"/>
<path fill-rule="evenodd" clip-rule="evenodd" d="M46.0186 8.15898H48.2109C48.2517 8.44474 48.2926 8.71656 48.3266 9.00232C48.7918 8.48669 49.3932 8.12041 50.0578 7.94799C50.7225 7.77556 51.4217 7.80439 52.0706 8.03099C52.7196 8.25758 53.2903 8.67219 53.7134 9.22445C54.1365 9.77671 54.3939 10.4429 54.4543 11.142C54.586 12.3227 54.5377 13.5171 54.3113 14.6826C54.1803 15.3171 53.8829 15.9031 53.451 16.3776C53.019 16.852 52.469 17.197 51.8599 17.3755C51.2508 17.5539 50.6057 17.5591 49.994 17.3904C49.3823 17.2217 48.827 16.8856 48.3879 16.4181V20.6556H46.0186V8.15898ZM52.2552 12.766C52.2333 12.3201 52.1625 11.8783 52.0441 11.4487C51.9666 11.0323 51.7417 10.6598 51.4125 10.4026C51.0834 10.1454 50.6731 10.0215 50.2603 10.0547C50.0445 10.0308 49.8262 10.0516 49.6184 10.116C49.4107 10.1804 49.2178 10.287 49.0512 10.4295C48.8847 10.572 48.7479 10.7475 48.6492 10.9453C48.5504 11.1432 48.4916 11.3595 48.4764 11.5811C48.3279 12.5014 48.3932 13.4445 48.6671 14.3341C48.8393 14.6238 49.0745 14.8688 49.3544 15.0502C49.6342 15.2315 49.9513 15.3442 50.2807 15.3796C50.6009 15.368 50.9132 15.2745 51.1891 15.1078C51.465 14.941 51.6957 14.7062 51.8603 14.4247C52.1048 13.9065 52.2394 13.3412 52.2552 12.766Z" fill="white"/>
<path d="M11.2886 22.956H11.064L11.098 23.5275H11.3363C11.7829 23.4845 12.2264 23.4123 12.664 23.3115L12.5414 22.7539C12.1285 22.8485 11.71 22.916 11.2886 22.956Z" fill="white"/>
<path d="M7.95898 23.2765C8.47515 23.4108 9.00115 23.5017 9.53175 23.5484L9.57941 22.9768C9.0836 22.9361 8.59179 22.8545 8.10877 22.7329L7.95898 23.2765Z" fill="white"/>
<path d="M13.978 22.3076L14.1755 22.8443C14.6691 22.6452 15.149 22.4124 15.6121 22.1473L15.3465 21.6455C14.9053 21.8973 14.4481 22.1185 13.978 22.3076Z" fill="white"/>
<path d="M5.06543 22.001C5.51256 22.2919 5.98155 22.5459 6.46798 22.7607L6.68585 22.238C6.2283 22.0417 5.78664 21.8086 5.365 21.541L5.06543 22.001Z" fill="white"/>
<path d="M0.117188 14.0348C0.194141 14.572 0.307897 15.103 0.457613 15.6239L0.988677 15.4636C0.85205 14.9674 0.74967 14.462 0.682294 13.9512L0.117188 14.0348Z" fill="white"/>
<path d="M0.578723 11.7C0.578723 11.4282 0.626383 11.1494 0.667234 10.8846L0.115745 10.7939C0.0748936 11.0797 0.0476596 11.3655 0.027234 11.6512C0.00680851 11.937 0 12.16 0 12.397H0.558298C0.558298 12.1739 0.565106 11.93 0.578723 11.7Z" fill="white"/>
<path d="M21.8622 10.0134C21.786 9.47605 21.6723 8.94499 21.5218 8.42432L20.9907 8.59159C21.1346 9.0848 21.2438 9.5879 21.3175 10.097L21.8622 10.0134Z" fill="white"/>
<path d="M0.987091 7.67822C0.774826 8.17419 0.595136 8.68411 0.449219 9.20459L0.980283 9.36489C1.11893 8.87061 1.28952 8.38631 1.49092 7.91519L0.987091 7.67822Z" fill="white"/>
<path d="M12.3984 6.32617C11.034 6.341 9.72186 6.86558 8.70877 7.80126C7.69568 8.73693 7.05141 10.0193 6.89711 11.4071C6.86267 12.0951 6.96567 12.7831 7.1998 13.4291C7.43393 14.075 7.79427 14.6652 8.25881 15.1637C8.72947 15.6941 9.30189 16.1195 9.94033 16.4133C10.5788 16.7071 11.2695 16.863 11.9694 16.8713C12.1192 16.8713 12.269 16.8713 12.4188 16.8713C13.7281 16.7106 14.938 16.0756 15.8297 15.081C16.7213 14.0864 17.2358 12.7981 17.2801 11.4489C17.2882 10.7844 17.1683 10.1248 16.9274 9.50769C16.6864 8.8906 16.3291 8.32815 15.8758 7.85245C15.4224 7.37675 14.882 6.99712 14.2854 6.73524C13.6887 6.47336 13.0475 6.33436 12.3984 6.32617ZM12.3984 16.2859H11.9967C11.3734 16.2771 10.7586 16.137 10.1905 15.8744C9.62238 15.6118 9.11317 15.2323 8.69456 14.7595C8.28121 14.3193 7.95993 13.7975 7.75038 13.2259C7.54083 12.6542 7.44741 12.0448 7.47583 11.435C7.6307 10.1948 8.21576 9.05298 9.12435 8.21755C10.0329 7.38212 11.2046 6.90876 12.4256 6.88375C13.5873 6.89662 14.6966 7.38094 15.5097 8.23035C16.3229 9.07976 16.7735 10.2248 16.7626 11.4141C16.7258 12.6311 16.2614 13.7937 15.4548 14.6886C14.6481 15.5835 13.5533 16.1506 12.3712 16.2859H12.3984Z" fill="white"/>
<path d="M12.2147 4.33301C8.42917 4.33301 4.88194 7.60877 4.62321 11.3445C4.57699 12.2926 4.72042 13.2403 5.04472 14.1296C5.36903 15.0188 5.86736 15.8309 6.50917 16.516C7.15757 17.2473 7.94626 17.8339 8.82601 18.2392C9.70576 18.6446 10.6577 18.8599 11.6224 18.8718C11.8266 18.8718 12.0377 18.8718 12.2419 18.8718C14.0483 18.6513 15.7178 17.7758 16.9481 16.4039C18.1783 15.0321 18.8879 13.2545 18.9483 11.3933C18.96 10.4769 18.795 9.56704 18.4628 8.71595C18.1305 7.86486 17.6376 7.08921 17.0121 6.4334C16.3866 5.77759 15.641 5.25451 14.8177 4.89409C13.9945 4.53368 13.11 4.34301 12.2147 4.33301ZM12.2147 18.2724C11.2334 18.3516 10.2474 18.1993 9.33257 17.8271C8.41778 17.455 7.5986 16.8729 6.93811 16.1257C6.34937 15.4979 5.89179 14.7539 5.59329 13.939C5.29479 13.1242 5.16163 12.2556 5.20194 11.3863C5.44704 7.90149 8.73555 4.90452 12.2419 4.90452C13.8913 4.93387 15.4625 5.62952 16.6129 6.8398C17.7633 8.05008 18.3996 9.67684 18.3832 11.3654C18.3256 13.083 17.6702 14.723 16.5354 15.9895C15.4006 17.256 13.8609 18.0657 12.1943 18.2724H12.2147Z" fill="white"/>
<path d="M11.6834 2.5C6.97871 2.5 2.83233 6.54939 2.51233 11.5606C2.43665 12.8285 2.61105 14.0989 3.02513 15.2963C3.4392 16.4937 4.08449 17.5936 4.92254 18.5303C5.68096 19.3859 6.60576 20.0697 7.63757 20.5378C8.66939 21.0059 9.78542 21.248 10.914 21.2485C11.1796 21.2485 11.4451 21.2485 11.7106 21.2067C14.0417 20.9227 16.196 19.7926 17.7825 18.0214C19.3691 16.2503 20.2827 13.9555 20.3574 11.5536C20.3774 9.17636 19.4754 6.88804 17.8492 5.19074C16.2231 3.49343 14.0056 2.52575 11.6834 2.5ZM11.6834 20.6212C10.5116 20.7367 9.32967 20.5707 8.23161 20.1363C7.13354 19.702 6.14967 19.0112 5.35829 18.1191C4.57147 17.2395 3.96581 16.2067 3.57745 15.0823C3.18908 13.9579 3.02598 12.7649 3.09786 11.5745C3.40424 6.88394 7.26467 3.07151 11.6834 3.07151C13.8576 3.09726 15.933 4.00472 17.4545 5.59485C18.9759 7.18498 19.8191 9.32793 19.7991 11.5536C19.7233 13.8107 18.8604 15.9654 17.3666 17.6275C15.8729 19.2896 13.8471 20.3491 11.6562 20.6142L11.6834 20.6212Z" fill="white"/>
<path d="M16.6196 20.8512L16.9396 21.3182C17.3663 21.003 17.7733 20.6608 18.1583 20.2937L17.7839 19.8755C17.416 20.2252 17.0272 20.5511 16.6196 20.8512Z" fill="white"/>
<path d="M3.11158 19.5059L2.68945 19.8753C3.03125 20.2882 3.40218 20.6749 3.79924 21.0322L4.1669 20.6001C3.78952 20.2622 3.4368 19.8965 3.11158 19.5059Z" fill="white"/>
<path d="M18.8257 18.746L19.2478 19.1154C19.5855 18.7017 19.8971 18.2664 20.1806 17.812L19.7448 17.5054C19.4648 17.9387 19.1578 18.3531 18.8257 18.746Z" fill="white"/>
<path d="M1.00098 17.1434C1.2195 17.6249 1.46972 18.0906 1.74991 18.5373L2.2197 18.2307C1.96247 17.7942 1.73497 17.3401 1.53885 16.8716L1.00098 17.1434Z" fill="white"/>
<path d="M20.4253 16.1535L20.9291 16.3975C21.1515 15.9073 21.3403 15.402 21.4942 14.885L20.9632 14.7178C20.8164 15.2085 20.6366 15.6882 20.4253 16.1535Z" fill="white"/>
<path d="M21.4195 11.6372C21.4203 12.1504 21.3839 12.6629 21.3105 13.1705L21.862 13.2542C21.9367 12.7396 21.9754 12.2202 21.9778 11.6999L21.4195 11.6372Z" fill="white"/>
<path d="M12.6023 14.8155C14.4373 14.8155 15.9249 13.3114 15.9249 11.4561C15.9249 9.60073 14.4373 8.09668 12.6023 8.09668C10.7673 8.09668 9.27979 9.60073 9.27979 11.4561C9.27979 13.3114 10.7673 14.8155 12.6023 14.8155Z" fill="white"/>
<path d="M20.9565 6.91152C20.7327 6.42876 20.4756 5.96293 20.1871 5.51758L19.7241 5.83121C19.988 6.25518 20.2224 6.69769 20.4254 7.15546L20.9565 6.91152Z" fill="white"/>
<path d="M3.05712 5.27356L2.62819 4.91113C2.29837 5.33179 1.99588 5.77416 1.72266 6.23537L2.19925 6.53507C2.45786 6.09575 2.74444 5.67434 3.05712 5.27356Z" fill="white"/>
<path d="M18.8121 4.59104L19.2274 4.2077C18.878 3.80369 18.5003 3.42633 18.0972 3.07861L17.7432 3.5177C18.1245 3.84841 18.4817 4.20714 18.8121 4.59104Z" fill="white"/>
<path d="M5.2355 3.15496L4.90869 2.68799C4.48263 3.00368 4.07774 3.34829 3.69678 3.7195L4.07805 4.13769C4.44187 3.78387 4.82856 3.45555 5.2355 3.15496Z" fill="white"/>
<path d="M16.8104 2.13052C16.3617 1.8464 15.8929 1.59711 15.4078 1.38477L15.1899 1.94234C15.6605 2.13891 16.1157 2.37191 16.5516 2.63931L16.8104 2.13052Z" fill="white"/>
<path d="M7.87721 1.72612L7.68657 1.18945C7.19093 1.3727 6.70859 1.59163 6.24316 1.8446L6.50189 2.35339C6.9453 2.11137 7.40489 1.90175 7.87721 1.72612Z" fill="white"/>
<path d="M13.91 0.868632C13.4002 0.73589 12.8812 0.642696 12.3577 0.589844L12.3032 1.16136C12.7993 1.21159 13.2909 1.30012 13.7739 1.42621L13.91 0.868632Z" fill="white"/>
<path d="M10.8052 1.11986V0.54834C10.2791 0.576143 9.75567 0.643701 9.23926 0.750461L9.34819 1.30804C9.82878 1.20931 10.3157 1.14642 10.8052 1.11986Z" fill="white"/>
</svg>
