<svg width="40" height="40" viewBox="0 0 40 40" fill="none" xmlns="http://www.w3.org/2000/svg">
<g clip-path="url(#clip0)">
<path d="M14.6669 25.7462L16.6986 14.3176H19.8732L17.905 25.7462H14.6669Z" fill="#3C58BF"/>
<path d="M14.6669 25.7462L17.27 14.3176H19.8732L17.905 25.7462H14.6669Z" fill="#293688"/>
<path d="M29.3968 14.4445C28.7619 14.1905 27.746 13.9365 26.4761 13.9365C23.3015 13.9365 21.0158 15.5238 21.0158 17.8095C21.0158 19.5238 22.6031 20.4127 23.873 20.9841C25.1428 21.5556 25.5238 21.9365 25.5238 22.4445C25.5238 23.2064 24.5079 23.5873 23.619 23.5873C22.3492 23.5873 21.6507 23.3968 20.5714 22.9524L20.1269 22.7619L19.6825 25.3651C20.4444 25.6826 21.8412 26 23.3015 26C26.6666 26 28.8888 24.4127 28.8888 22C28.8888 20.6667 28.0634 19.6508 26.1587 18.8254C25.0158 18.254 24.3174 17.9365 24.3174 17.3651C24.3174 16.8572 24.8888 16.3492 26.1587 16.3492C27.2381 16.3492 28 16.5397 28.5714 16.7937L28.8888 16.9206L29.3968 14.4445Z" fill="#3C58BF"/>
<path d="M29.3968 14.4445C28.7619 14.1905 27.746 13.9365 26.4761 13.9365C23.3015 13.9365 21.5873 15.5238 21.5873 17.8095C21.5873 19.5238 22.6031 20.4127 23.873 20.9841C25.1428 21.5556 25.5238 21.9365 25.5238 22.4445C25.5238 23.2064 24.5079 23.5873 23.619 23.5873C22.3492 23.5873 21.6507 23.3968 20.5714 22.9524L20.1269 22.7619L19.6825 25.3651C20.4444 25.6826 21.8412 26 23.3015 26C26.6666 26 28.8888 24.4127 28.8888 22C28.8888 20.6667 28.0634 19.6508 26.1587 18.8254C25.0158 18.254 24.3174 17.9365 24.3174 17.3651C24.3174 16.8572 24.8888 16.3492 26.1587 16.3492C27.2381 16.3492 28 16.5397 28.5714 16.7937L28.8888 16.9206L29.3968 14.4445Z" fill="#293688"/>
<path d="M34.8573 14.3176C34.0954 14.3176 33.5239 14.3811 33.2065 15.143L28.4446 25.7462H31.8732L32.5081 23.8414H36.5716L36.9525 25.7462H40.0001L37.3335 14.3176H34.8573ZM33.397 21.9367C33.5874 21.3652 34.6668 18.5716 34.6668 18.5716C34.6668 18.5716 34.9208 17.8732 35.1112 17.4287L35.3017 18.5081C35.3017 18.5081 35.9366 21.3652 36.0636 22.0002H33.397V21.9367Z" fill="#3C58BF"/>
<path d="M35.6192 14.3176C34.8573 14.3176 34.2858 14.3811 33.9684 15.143L28.4446 25.7462H31.8732L32.5081 23.8414H36.5716L36.9525 25.7462H40.0001L37.3335 14.3176H35.6192ZM33.397 21.9367C33.6509 21.3018 34.6668 18.5716 34.6668 18.5716C34.6668 18.5716 34.9208 17.8732 35.1112 17.4287L35.3017 18.5081C35.3017 18.5081 35.9366 21.3652 36.0636 22.0002H33.397V21.9367Z" fill="#293688"/>
<path d="M8.82514 22.3174L8.50768 20.6666C7.93625 18.7618 6.09498 16.6666 4.06323 15.6507L6.92038 25.8094H10.3489L15.4918 14.3809H12.0632L8.82514 22.3174Z" fill="#3C58BF"/>
<path d="M8.82514 22.3174L8.50768 20.6666C7.93625 18.7618 6.09498 16.6666 4.06323 15.6507L6.92038 25.8094H10.3489L15.4918 14.3809H12.6982L8.82514 22.3174Z" fill="#293688"/>
<path d="M0 14.3176L0.571429 14.4446C4.63492 15.397 7.42857 17.8097 8.50794 20.6668L7.36508 15.27C7.1746 14.5081 6.60318 14.3176 5.90476 14.3176H0Z" fill="#FFBC00"/>
<path d="M0 14.3176C4.06349 15.27 7.42857 17.7462 8.50794 20.6033L7.42857 16.0954C7.2381 15.3335 6.60318 14.8891 5.90476 14.8891L0 14.3176Z" fill="#F7981D"/>
<path d="M0 14.3176C4.06349 15.27 7.42857 17.7462 8.50794 20.6033L7.74603 18.1272C7.55556 17.3652 7.30159 16.6033 6.4127 16.2859L0 14.3176Z" fill="#ED7C00"/>
<path d="M12.0001 21.9366L9.84136 19.7779L8.82549 22.1906L8.57152 20.6033C8.00009 18.6985 6.15882 16.6033 4.12708 15.5874L6.98422 25.7461H10.4128L12.0001 21.9366Z" fill="#051244"/>
<path d="M17.905 25.746L15.1748 22.9524L14.6669 25.746H17.905Z" fill="#051244"/>
<path d="M25.2064 21.8098C25.4604 22.0638 25.5874 22.2543 25.5239 22.5082C25.5239 23.2701 24.508 23.6511 23.6191 23.6511C22.3493 23.6511 21.6509 23.4606 20.5715 23.0162L20.1271 22.8257L19.6826 25.4289C20.4445 25.7463 21.8413 26.0638 23.3017 26.0638C25.3334 26.0638 26.9842 25.4924 27.9366 24.4765L25.2064 21.8098Z" fill="#051244"/>
<path d="M28.889 25.7462H31.8732L32.5081 23.8414H36.5716L36.9525 25.7462H40.0001L38.9208 21.1112L35.1113 17.4287L35.3017 18.4446C35.3017 18.4446 35.9367 21.3017 36.0636 21.9366H33.397C33.6509 21.3017 34.6668 18.5716 34.6668 18.5716C34.6668 18.5716 34.9208 17.8732 35.1113 17.4287" fill="#051244"/>
</g>
<defs>
<clipPath id="clip0">
<rect width="40" height="40" fill="white"/>
</clipPath>
</defs>
</svg>
